<?xml version="1.0" encoding="UTF-8"?>
<svg id="Capa_2" data-name="Capa 2" xmlns="http://www.w3.org/2000/svg" viewBox="0 0 948.09 438.53">
  <defs>
    <style>
      .cls-1 {
        fill: #fff;
        font-size: 366.91px;
        opacity: .85;
      }

      .cls-1, .cls-2, .cls-3 {
        font-family: BernardMT-Condensed, 'Bernard MT Condensed';
      }

      .cls-4 {
        fill: #068293;
      }

      .cls-4, .cls-5 {
        stroke-width: 0px;
      }

      .cls-5, .cls-2, .cls-3 {
        fill: #91a3b0;
      }

      .cls-6 {
        opacity: .8;
      }

      .cls-2 {
        font-size: 93.19px;
      }

      .cls-3 {
        font-size: 97.1px;
      }
    </style>
  </defs>
  <g id="Capa_1-2" data-name="Capa 1">
    <polygon class="cls-4" points="398.3 319.58 199.15 426.11 0 319.58 0 106.53 199.15 0 398.3 106.53 398.3 319.58"/>
    <g>
      <path class="cls-5" d="m474.92,297.05h15.32l5.91,20.38,5.87-20.38h15.31v33.49h-9.54v-25.54l-7.35,25.54h-8.63l-7.34-25.54v25.54h-9.54v-33.49Z"/>
      <path class="cls-5" d="m522.77,318.48c0-3.7,1.41-6.75,4.22-9.15,2.81-2.4,6.61-3.6,11.39-3.6,5.47,0,9.6,1.41,12.39,4.23,2.25,2.27,3.37,5.06,3.37,8.38,0,3.73-1.39,6.79-4.18,9.17-2.79,2.38-6.64,3.57-11.56,3.57-4.39,0-7.94-.99-10.65-2.97-3.33-2.45-4.99-5.66-4.99-9.64Zm10.49-.02c0,2.16.49,3.76,1.48,4.8.99,1.04,2.22,1.55,3.72,1.55s2.75-.51,3.72-1.53c.97-1.02,1.45-2.66,1.45-4.91,0-2.1-.49-3.67-1.47-4.69s-2.19-1.54-3.63-1.54c-1.53,0-2.79.52-3.78,1.56-.99,1.04-1.49,2.63-1.49,4.76Z"/>
      <path class="cls-5" d="m571.81,297.05v9.23h5.76v6.81h-5.76v8.59c0,1.03.11,1.72.33,2.05.34.52.94.78,1.8.78.77,0,1.85-.2,3.24-.59l.77,6.42c-2.59.5-5.01.75-7.25.75-2.61,0-4.53-.3-5.76-.89-1.23-.59-2.15-1.49-2.74-2.7-.59-1.21-.89-3.17-.89-5.87v-8.53h-3.86v-6.81h3.86v-4.45l10.49-4.77Z"/>
      <path class="cls-5" d="m581.27,318.48c0-3.7,1.41-6.75,4.22-9.15,2.81-2.4,6.61-3.6,11.39-3.6,5.47,0,9.6,1.41,12.39,4.23,2.25,2.27,3.37,5.06,3.37,8.38,0,3.73-1.39,6.79-4.18,9.17-2.79,2.38-6.64,3.57-11.56,3.57-4.39,0-7.94-.99-10.65-2.97-3.33-2.45-4.99-5.66-4.99-9.64Zm10.49-.02c0,2.16.49,3.76,1.48,4.8.99,1.04,2.22,1.55,3.72,1.55s2.75-.51,3.72-1.53c.97-1.02,1.45-2.66,1.45-4.91,0-2.1-.49-3.67-1.47-4.69s-2.19-1.54-3.63-1.54c-1.53,0-2.79.52-3.78,1.56-.99,1.04-1.49,2.63-1.49,4.76Z"/>
      <path class="cls-5" d="m636.09,330.54v-33.49h19.41c3.6,0,6.35.27,8.25.82,1.9.55,3.44,1.56,4.6,3.05,1.17,1.48,1.75,3.29,1.75,5.42,0,1.86-.45,3.46-1.34,4.81s-2.12,2.44-3.68,3.28c-.99.53-2.36.97-4.09,1.33,1.39.41,2.4.82,3.03,1.23.43.27,1.05.86,1.86,1.76.81.9,1.36,1.59,1.63,2.08l5.64,9.7h-13.16l-6.23-10.23c-.79-1.33-1.49-2.18-2.11-2.58-.84-.52-1.79-.78-2.85-.78h-1.03v13.59h-11.7Zm11.7-19.92h4.91c.53,0,1.56-.15,3.09-.46.77-.14,1.4-.49,1.89-1.05.49-.56.73-1.21.73-1.94,0-1.08-.39-1.91-1.16-2.49s-2.22-.87-4.35-.87h-5.12v6.81Z"/>
      <path class="cls-5" d="m705.21,320.72h-20.98c.19,1.49.64,2.6,1.36,3.33,1.01,1.05,2.33,1.58,3.96,1.58,1.03,0,2.01-.23,2.93-.69.57-.29,1.17-.8,1.83-1.53l10.31.85c-1.58,2.44-3.48,4.18-5.71,5.24-2.23,1.06-5.43,1.59-9.59,1.59-3.62,0-6.46-.45-8.54-1.36-2.07-.91-3.79-2.35-5.16-4.32-1.36-1.97-2.04-4.29-2.04-6.96,0-3.79,1.37-6.86,4.1-9.2,2.73-2.34,6.51-3.52,11.33-3.52,3.91,0,6.99.53,9.26,1.58,2.26,1.05,3.99,2.57,5.17,4.57,1.18,1.99,1.77,4.59,1.77,7.79v1.05Zm-10.65-4.45c-.21-1.8-.75-3.08-1.63-3.86-.88-.78-2.04-1.16-3.48-1.16-1.66,0-2.99.59-3.99,1.76-.63.73-1.04,1.82-1.21,3.27h10.31Z"/>
      <path class="cls-5" d="m710.07,339.77v-33.49h9.8v3.59c1.35-1.51,2.6-2.53,3.73-3.06,1.53-.72,3.21-1.07,5.07-1.07,3.65,0,6.48,1.24,8.47,3.72,2,2.48,3,5.55,3,9.21,0,4.03-1.09,7.11-3.27,9.24-2.18,2.12-4.93,3.19-8.25,3.19-1.61,0-3.08-.24-4.41-.73-1.33-.49-2.52-1.21-3.56-2.17v11.58h-10.57Zm10.49-21.29c0,1.92.45,3.34,1.36,4.27.91.93,2.06,1.39,3.45,1.39,1.22,0,2.24-.45,3.06-1.34s1.23-2.4,1.23-4.53c0-1.96-.43-3.41-1.29-4.33-.86-.92-1.9-1.38-3.14-1.38-1.34,0-2.45.46-3.34,1.39s-1.34,2.44-1.34,4.52Z"/>
      <path class="cls-5" d="m773.91,330.54h-9.77v-3.93c-1.46,1.61-2.93,2.76-4.41,3.45-1.48.69-3.3,1.03-5.46,1.03-2.88,0-5.14-.76-6.78-2.3-1.64-1.53-2.46-3.89-2.46-7.07v-15.44h10.52v13.34c0,1.52.32,2.6.95,3.24s1.53.96,2.67.96c1.25,0,2.28-.43,3.07-1.28.8-.85,1.2-2.38,1.2-4.59v-11.67h10.47v24.26Z"/>
      <path class="cls-5" d="m810.58,320.72h-20.98c.19,1.49.64,2.6,1.36,3.33,1.01,1.05,2.33,1.58,3.96,1.58,1.03,0,2.01-.23,2.93-.69.57-.29,1.17-.8,1.83-1.53l10.31.85c-1.58,2.44-3.48,4.18-5.71,5.24-2.23,1.06-5.43,1.59-9.59,1.59-3.62,0-6.46-.45-8.54-1.36-2.07-.91-3.79-2.35-5.16-4.32-1.36-1.97-2.04-4.29-2.04-6.96,0-3.79,1.37-6.86,4.1-9.2,2.73-2.34,6.51-3.52,11.33-3.52,3.91,0,6.99.53,9.26,1.58,2.26,1.05,3.99,2.57,5.17,4.57,1.18,1.99,1.77,4.59,1.77,7.79v1.05Zm-10.65-4.45c-.21-1.8-.75-3.08-1.63-3.86-.88-.78-2.04-1.16-3.48-1.16-1.66,0-2.99.59-3.99,1.76-.63.73-1.04,1.82-1.21,3.27h10.31Z"/>
      <path class="cls-5" d="m813.54,323.8l10.39-.87c.43,1.1,1.03,1.88,1.8,2.35.77.47,1.8.71,3.09.71,1.41,0,2.49-.27,3.27-.8.6-.39.9-.89.9-1.48,0-.67-.39-1.19-1.18-1.55-.57-.26-2.07-.58-4.5-.96-3.63-.56-6.16-1.08-7.57-1.56-1.41-.48-2.61-1.29-3.57-2.43-.97-1.14-1.45-2.44-1.45-3.9,0-1.6.52-2.97,1.57-4.13,1.05-1.16,2.49-2.02,4.32-2.59,1.83-.57,4.29-.86,7.38-.86,3.26,0,5.66.22,7.21.66,1.55.44,2.85,1.13,3.88,2.06,1.04.93,1.9,2.18,2.58,3.77l-9.93.87c-.26-.78-.69-1.35-1.29-1.71-.82-.49-1.82-.73-2.98-.73s-2.04.19-2.58.56c-.54.37-.81.83-.81,1.36,0,.59.34,1.04,1.03,1.35s2.18.58,4.47.82c3.48.35,6.07.84,7.77,1.46s3,1.51,3.9,2.67,1.35,2.43,1.35,3.81-.48,2.76-1.43,4.08-2.45,2.38-4.5,3.16c-2.05.78-4.84,1.17-8.37,1.17-4.99,0-8.54-.63-10.66-1.9-2.12-1.26-3.48-3.06-4.08-5.39Z"/>
      <path class="cls-5" d="m860.18,297.05v9.23h5.76v6.81h-5.76v8.59c0,1.03.11,1.72.33,2.05.34.52.94.78,1.8.78.77,0,1.85-.2,3.24-.59l.77,6.42c-2.59.5-5.01.75-7.25.75-2.61,0-4.53-.3-5.76-.89-1.23-.59-2.15-1.49-2.74-2.7-.59-1.21-.89-3.17-.89-5.87v-8.53h-3.86v-6.81h3.86v-4.45l10.49-4.77Z"/>
      <path class="cls-5" d="m869.64,318.48c0-3.7,1.4-6.75,4.22-9.15,2.81-2.4,6.61-3.6,11.39-3.6,5.47,0,9.6,1.41,12.39,4.23,2.25,2.27,3.37,5.06,3.37,8.38,0,3.73-1.39,6.79-4.18,9.17-2.79,2.38-6.64,3.57-11.56,3.57-4.39,0-7.94-.99-10.65-2.97-3.33-2.45-4.99-5.66-4.99-9.64Zm10.49-.02c0,2.16.49,3.76,1.48,4.8.99,1.04,2.22,1.55,3.72,1.55s2.75-.51,3.72-1.53c.97-1.02,1.45-2.66,1.45-4.91,0-2.1-.49-3.67-1.47-4.69-.98-1.03-2.19-1.54-3.63-1.54-1.53,0-2.79.52-3.78,1.56-.99,1.04-1.49,2.63-1.49,4.76Z"/>
      <path class="cls-5" d="m904.2,323.8l10.39-.87c.43,1.1,1.03,1.88,1.8,2.35.77.47,1.8.71,3.09.71,1.41,0,2.49-.27,3.27-.8.6-.39.9-.89.9-1.48,0-.67-.39-1.19-1.18-1.55-.57-.26-2.07-.58-4.5-.96-3.63-.56-6.16-1.08-7.57-1.56-1.41-.48-2.61-1.29-3.57-2.43-.97-1.14-1.45-2.44-1.45-3.9,0-1.6.52-2.97,1.57-4.13,1.05-1.16,2.49-2.02,4.32-2.59,1.83-.57,4.29-.86,7.38-.86,3.26,0,5.66.22,7.21.66,1.55.44,2.85,1.13,3.88,2.06,1.04.93,1.9,2.18,2.58,3.77l-9.93.87c-.26-.78-.69-1.35-1.29-1.71-.82-.49-1.82-.73-2.98-.73s-2.04.19-2.58.56c-.54.37-.81.83-.81,1.36,0,.59.34,1.04,1.03,1.35s2.18.58,4.47.82c3.48.35,6.07.84,7.77,1.46s3,1.51,3.9,2.67,1.35,2.43,1.35,3.81-.48,2.76-1.43,4.08-2.45,2.38-4.5,3.16c-2.05.78-4.84,1.17-8.37,1.17-4.99,0-8.54-.63-10.66-1.9-2.12-1.26-3.48-3.06-4.08-5.39Z"/>
    </g>
    <g class="cls-6">
      <path class="cls-4" d="m430.99,274.44v-134.38h61.63c12.81,0,22.14,3.58,28.01,10.73,5.87,7.15,8.8,15.33,8.8,24.51,0,6.69-1.7,12.75-5.11,18.16-3.41,5.41-8.49,9.14-15.25,11.17,15.71,4.2,23.57,14.64,23.57,31.31,0,9.98-2.77,18.89-8.31,26.73-5.54,7.84-17.38,11.76-35.53,11.76h-57.8Zm34.33-82.89h17.25c4.33,0,7.38-1.21,9.16-3.64,1.78-2.43,2.67-5.02,2.67-7.78,0-7.48-4.15-11.22-12.45-11.22h-16.63v22.64Zm0,52.97h18.14c4.5,0,7.81-1.23,9.92-3.69,2.1-2.46,3.16-5.23,3.16-8.32s-1.02-5.92-3.07-8.52c-2.05-2.59-5.8-3.89-11.25-3.89h-16.9v24.42Z"/>
      <path class="cls-4" d="m582.25,135.83v31.11h-35.48v-31.11h35.48Zm0,38.49v100.12h-35.48v-100.12h35.48Z"/>
      <path class="cls-4" d="m621.11,274.44h-20.01v-134.38h34.95v46.17c4.86-9.32,12.6-13.98,23.21-13.98,7.47,0,13.81,2.17,19.03,6.5,5.22,4.33,9.1,10.52,11.65,18.56,2.55,8.04,3.82,16.49,3.82,25.35,0,16.15-3.26,29.16-9.78,39.04-6.52,9.88-16.24,14.82-29.17,14.82s-22.44-5.28-29.08-15.85c-1.9,3.94-3.44,8.53-4.62,13.78Zm14.94-37.31c0,9.84,3.44,14.77,10.32,14.77,3.73,0,6.59-1.79,8.58-5.37,1.99-3.58,2.98-10.94,2.98-22.1,0-12.14-1.13-19.77-3.38-22.89-2.25-3.12-5.04-4.68-8.36-4.68-2.61,0-4.95,1.12-7.03,3.35-2.08,2.23-3.11,5.48-3.11,9.75v27.17Z"/>
      <path class="cls-4" d="m752.1,276.51c-15,0-26.92-5.17-35.75-15.51-8.83-10.34-13.25-22.46-13.25-36.38,0-14.96,4.61-27.43,13.83-37.41,9.22-9.98,21.21-14.96,35.97-14.96s26.84,4.92,35.88,14.77c9.04,9.84,13.56,22.18,13.56,37.02s-4.58,27.45-13.74,37.46c-9.16,10.01-21.33,15.01-36.5,15.01Zm.53-23.82c5.51,0,8.88-3.17,10.09-9.5,1.21-6.33,1.82-12.95,1.82-19.84,0-9.38-.86-16.15-2.58-20.28-1.72-4.13-4.8-6.2-9.25-6.2-4.09,0-7.09,2.13-8.98,6.4-1.9,4.27-2.85,11.29-2.85,21.07,0,11.49.98,19.08,2.93,22.79,1.96,3.71,4.89,5.56,8.8,5.56Z"/>
      <path class="cls-4" d="m808.12,246.09l28.01-4.23c1.6,7.22,7.94,10.83,19.03,10.83,9.19,0,13.78-1.97,13.78-5.91,0-1.71-.89-3.03-2.67-3.99-1.78-.95-5.99-1.92-12.63-2.91-18.38-2.82-29.85-7.24-34.41-13.24-4.57-6.01-6.85-12.68-6.85-20.03,0-10.24,3.85-18.52,11.56-24.86,7.71-6.33,17.81-9.5,30.32-9.5,21.93,0,35.93,8.76,41.97,26.29l-26.86,5.61c-2.49-5.91-7.74-8.86-15.74-8.86-3.8,0-6.62.57-8.49,1.72-1.87,1.15-2.8,2.28-2.8,3.4,0,3.28,2.85,5.28,8.54,5.99,14.82,1.82,24.87,3.68,30.15,5.58,5.28,1.9,9.78,5.39,13.51,10.44,3.73,5.06,5.6,11.17,5.6,18.33,0,10.97-4.14,19.67-12.41,26.11s-19.67,9.65-34.19,9.65c-24.48,0-39.63-10.14-45.44-30.42Z"/>
      <path class="cls-4" d="m948.09,135.83v31.11h-35.48v-31.11h35.48Zm0,38.49v100.12h-35.48v-100.12h35.48Z"/>
    </g>
    <text class="cls-1" transform="translate(65.86 355.76) scale(1.54 1)"><tspan x="0" y="0">B</tspan></text>
    <text class="cls-2" transform="translate(96.71 305.32) scale(1.8 1)"><tspan x="0" y="0">M</tspan></text>
    <text class="cls-3" transform="translate(252.77 306.99) scale(1.4 1)"><tspan x="0" y="0">R</tspan></text>
  </g>
</svg>