<?xml version="1.0" encoding="UTF-8"?>
<svg id="Capa_1" data-name="Capa 1" xmlns="http://www.w3.org/2000/svg" viewBox="0 0 769.02 774.06">
  <defs>
    <style>
      .cls-1 {
        fill: #92a4b1;
      }

      .cls-1, .cls-2, .cls-3, .cls-4, .cls-5, .cls-6, .cls-7 {
        stroke-width: 0px;
      }

      .cls-2 {
        fill: #068293;
      }

      .cls-3 {
        fill: #91a3b0;
      }

      .cls-4 {
        fill: #e4ebef;
      }

      .cls-8 {
        opacity: .8;
      }

      .cls-5 {
        fill: #fff;
      }

      .cls-6 {
        fill: #1a8395;
      }

      .cls-7 {
        fill: #1a8394;
      }
    </style>
  </defs>
  <g>
    <path class="cls-3" d="m90.65,710.22h19.98l7.7,30.45,7.65-30.45h19.96v50.05h-12.44v-38.17l-9.59,38.17h-11.26l-9.57-38.17v38.17h-12.44v-50.05Z"/>
    <path class="cls-3" d="m153.05,742.24c0-5.53,1.83-10.09,5.5-13.67,3.67-3.58,8.62-5.38,14.85-5.38,7.13,0,12.52,2.11,16.16,6.32,2.93,3.39,4.39,7.57,4.39,12.53,0,5.58-1.82,10.15-5.45,13.71-3.63,3.56-8.66,5.34-15.07,5.34-5.72,0-10.35-1.48-13.88-4.44-4.34-3.66-6.51-8.47-6.51-14.41Zm13.68-.03c0,3.23.64,5.62,1.93,7.17,1.28,1.55,2.9,2.32,4.85,2.32s3.58-.76,4.85-2.29c1.26-1.53,1.89-3.97,1.89-7.34,0-3.14-.64-5.48-1.91-7.02s-2.85-2.3-4.73-2.3c-1.99,0-3.63.78-4.93,2.34-1.3,1.56-1.94,3.93-1.94,7.12Z"/>
    <path class="cls-3" d="m217,710.22v13.79h7.51v10.17h-7.51v12.85c0,1.54.15,2.57.44,3.07.45.77,1.23,1.16,2.35,1.16,1.01,0,2.41-.29,4.22-.89l1.01,9.59c-3.38.75-6.53,1.13-9.46,1.13-3.4,0-5.9-.44-7.51-1.33-1.61-.89-2.8-2.23-3.57-4.04-.77-1.81-1.16-4.73-1.16-8.78v-12.75h-5.03v-10.17h5.03v-6.66l13.68-7.14Z"/>
    <path class="cls-3" d="m229.34,742.24c0-5.53,1.83-10.09,5.5-13.67,3.67-3.58,8.62-5.38,14.85-5.38,7.13,0,12.52,2.11,16.16,6.32,2.93,3.39,4.39,7.57,4.39,12.53,0,5.58-1.82,10.15-5.45,13.71-3.63,3.56-8.66,5.34-15.07,5.34-5.72,0-10.35-1.48-13.88-4.44-4.34-3.66-6.51-8.47-6.51-14.41Zm13.68-.03c0,3.23.64,5.62,1.93,7.17,1.28,1.55,2.9,2.32,4.85,2.32s3.58-.76,4.85-2.29c1.26-1.53,1.89-3.97,1.89-7.34,0-3.14-.64-5.48-1.91-7.02s-2.85-2.3-4.73-2.3c-1.99,0-3.63.78-4.93,2.34-1.3,1.56-1.94,3.93-1.94,7.12Z"/>
    <path class="cls-3" d="m300.83,760.27v-50.05h25.32c4.69,0,8.28.41,10.76,1.23,2.48.82,4.48,2.34,6,4.56,1.52,2.22,2.28,4.92,2.28,8.11,0,2.78-.58,5.17-1.74,7.19s-2.76,3.65-4.8,4.9c-1.3.8-3.08,1.46-5.33,1.98,1.81.62,3.13,1.23,3.95,1.85.56.41,1.37,1.29,2.43,2.63,1.06,1.34,1.77,2.38,2.13,3.11l7.36,14.5h-17.16l-8.12-15.29c-1.03-1.98-1.94-3.27-2.75-3.86-1.1-.77-2.34-1.16-3.72-1.16h-1.34v20.31h-15.26Zm15.26-29.77h6.4c.69,0,2.03-.23,4.02-.68,1.01-.2,1.83-.73,2.46-1.57.64-.84.96-1.81.96-2.9,0-1.62-.5-2.86-1.51-3.72s-2.9-1.3-5.67-1.3h-6.67v10.17Z"/>
    <path class="cls-3" d="m390.96,745.59h-27.36c.25,2.23.84,3.89,1.78,4.98,1.32,1.57,3.04,2.36,5.16,2.36,1.34,0,2.62-.34,3.82-1.02.74-.43,1.53-1.19,2.38-2.29l13.45,1.26c-2.06,3.64-4.54,6.25-7.44,7.84-2.91,1.58-7.08,2.37-12.51,2.37-4.72,0-8.43-.68-11.13-2.03-2.7-1.35-4.95-3.51-6.72-6.45-1.78-2.95-2.67-6.41-2.67-10.4,0-5.67,1.78-10.25,5.35-13.76,3.57-3.5,8.49-5.26,14.77-5.26,5.1,0,9.12.79,12.07,2.36,2.95,1.57,5.2,3.85,6.74,6.83,1.54,2.98,2.31,6.86,2.31,11.64v1.57Zm-13.88-6.66c-.27-2.68-.98-4.61-2.13-5.77-1.15-1.16-2.67-1.74-4.54-1.74-2.17,0-3.9.88-5.2,2.63-.83,1.09-1.35,2.72-1.58,4.88h13.45Z"/>
    <path class="cls-3" d="m397.3,774.06v-50.05h12.78v5.36c1.77-2.25,3.39-3.78,4.86-4.57,1.99-1.07,4.19-1.61,6.61-1.61,4.76,0,8.44,1.86,11.05,5.56,2.6,3.71,3.91,8.3,3.91,13.76,0,6.03-1.42,10.63-4.26,13.81-2.84,3.18-6.43,4.76-10.76,4.76-2.1,0-4.02-.36-5.75-1.09-1.73-.73-3.28-1.81-4.64-3.24v17.31h-13.78Zm13.68-31.82c0,2.87.59,5,1.78,6.38,1.18,1.39,2.68,2.08,4.49,2.08,1.59,0,2.92-.67,3.99-2s1.61-3.59,1.61-6.78c0-2.94-.56-5.09-1.68-6.47-1.12-1.38-2.48-2.06-4.09-2.06-1.74,0-3.2.69-4.36,2.08s-1.74,3.64-1.74,6.76Z"/>
    <path class="cls-3" d="m480.56,760.27h-12.74v-5.87c-1.9,2.41-3.82,4.13-5.75,5.15-1.93,1.02-4.31,1.54-7.13,1.54-3.76,0-6.7-1.14-8.84-3.43-2.14-2.29-3.2-5.81-3.2-10.57v-23.08h13.71v19.94c0,2.28.41,3.89,1.24,4.85s1.99,1.43,3.49,1.43c1.63,0,2.97-.64,4.01-1.91,1.04-1.27,1.56-3.56,1.56-6.86v-17.45h13.65v36.26Z"/>
    <path class="cls-3" d="m528.37,745.59h-27.36c.25,2.23.84,3.89,1.78,4.98,1.32,1.57,3.04,2.36,5.16,2.36,1.34,0,2.62-.34,3.82-1.02.74-.43,1.53-1.19,2.38-2.29l13.45,1.26c-2.06,3.64-4.54,6.25-7.44,7.84-2.91,1.58-7.08,2.37-12.51,2.37-4.72,0-8.43-.68-11.13-2.03-2.7-1.35-4.95-3.51-6.72-6.45-1.78-2.95-2.67-6.41-2.67-10.4,0-5.67,1.78-10.25,5.35-13.76,3.57-3.5,8.49-5.26,14.77-5.26,5.1,0,9.12.79,12.07,2.36,2.95,1.57,5.2,3.85,6.74,6.83,1.54,2.98,2.31,6.86,2.31,11.64v1.57Zm-13.88-6.66c-.27-2.68-.98-4.61-2.13-5.77-1.15-1.16-2.67-1.74-4.54-1.74-2.17,0-3.9.88-5.2,2.63-.83,1.09-1.35,2.72-1.58,4.88h13.45Z"/>
    <path class="cls-3" d="m532.23,750.2l13.55-1.3c.56,1.64,1.34,2.81,2.35,3.52,1.01.71,2.35,1.06,4.02,1.06,1.83,0,3.25-.4,4.26-1.19.78-.59,1.17-1.33,1.17-2.22,0-1-.52-1.77-1.54-2.32-.74-.39-2.69-.86-5.87-1.43-4.74-.84-8.03-1.62-9.88-2.34-1.84-.71-3.4-1.93-4.66-3.63-1.26-1.7-1.89-3.65-1.89-5.83,0-2.39.68-4.44,2.04-6.17,1.36-1.73,3.24-3.02,5.63-3.87,2.39-.85,5.6-1.28,9.62-1.28,4.25,0,7.38.33,9.41.99,2.02.66,3.71,1.69,5.06,3.07,1.35,1.39,2.48,3.27,3.37,5.63l-12.94,1.3c-.34-1.16-.89-2.01-1.68-2.56-1.07-.73-2.37-1.09-3.89-1.09s-2.66.28-3.37.83c-.7.56-1.06,1.23-1.06,2.03,0,.89.45,1.56,1.34,2.01s2.84.86,5.84,1.23c4.54.52,7.91,1.25,10.13,2.18s3.91,2.26,5.08,3.99,1.76,3.63,1.76,5.7-.62,4.13-1.86,6.11-3.2,3.55-5.87,4.72c-2.67,1.17-6.31,1.76-10.91,1.76-6.51,0-11.14-.94-13.9-2.83-2.76-1.89-4.53-4.58-5.31-8.06Z"/>
    <path class="cls-3" d="m593.05,710.22v13.79h7.51v10.17h-7.51v12.85c0,1.54.14,2.57.44,3.07.45.77,1.23,1.16,2.35,1.16,1.01,0,2.42-.29,4.23-.89l1.01,9.59c-3.38.75-6.53,1.13-9.46,1.13-3.4,0-5.9-.44-7.51-1.33-1.61-.89-2.8-2.23-3.57-4.04-.77-1.81-1.16-4.73-1.16-8.78v-12.75h-5.03v-10.17h5.03v-6.66l13.68-7.14Z"/>
    <path class="cls-3" d="m605.39,742.24c0-5.53,1.83-10.09,5.5-13.67,3.67-3.58,8.62-5.38,14.85-5.38,7.13,0,12.52,2.11,16.16,6.32,2.93,3.39,4.39,7.57,4.39,12.53,0,5.58-1.82,10.15-5.45,13.71-3.63,3.56-8.66,5.34-15.07,5.34-5.72,0-10.35-1.48-13.88-4.44-4.34-3.66-6.5-8.47-6.5-14.41Zm13.68-.03c0,3.23.64,5.62,1.93,7.17,1.29,1.55,2.9,2.32,4.85,2.32s3.58-.76,4.85-2.29c1.26-1.53,1.89-3.97,1.89-7.34,0-3.14-.64-5.48-1.91-7.02-1.27-1.54-2.85-2.3-4.73-2.3-1.99,0-3.63.78-4.93,2.34-1.3,1.56-1.95,3.93-1.95,7.12Z"/>
    <path class="cls-3" d="m650.46,750.2l13.55-1.3c.56,1.64,1.34,2.81,2.35,3.52,1.01.71,2.35,1.06,4.02,1.06,1.83,0,3.25-.4,4.26-1.19.78-.59,1.17-1.33,1.17-2.22,0-1-.52-1.77-1.54-2.32-.74-.39-2.69-.86-5.87-1.43-4.74-.84-8.03-1.62-9.88-2.34-1.84-.71-3.4-1.93-4.66-3.63-1.26-1.7-1.89-3.65-1.89-5.83,0-2.39.68-4.44,2.04-6.17,1.36-1.73,3.24-3.02,5.63-3.87,2.39-.85,5.6-1.28,9.62-1.28,4.25,0,7.38.33,9.41.99,2.02.66,3.71,1.69,5.06,3.07,1.35,1.39,2.48,3.27,3.37,5.63l-12.94,1.3c-.34-1.16-.89-2.01-1.68-2.56-1.07-.73-2.37-1.09-3.89-1.09s-2.66.28-3.37.83c-.7.56-1.06,1.23-1.06,2.03,0,.89.45,1.56,1.34,2.01s2.84.86,5.84,1.23c4.54.52,7.91,1.25,10.13,2.18s3.91,2.26,5.08,3.99,1.76,3.63,1.76,5.7-.62,4.13-1.86,6.11c-1.24,1.98-3.2,3.55-5.87,4.72-2.67,1.17-6.31,1.76-10.91,1.76-6.51,0-11.14-.94-13.9-2.83-2.76-1.89-4.53-4.58-5.31-8.06Z"/>
  </g>
  <g class="cls-8">
    <path class="cls-2" d="m0,689.27v-185.23h91.65c19.04,0,32.93,4.93,41.66,14.79,8.73,9.86,13.09,21.12,13.09,33.79,0,9.23-2.54,17.57-7.6,25.04-5.07,7.46-12.63,12.6-22.68,15.4,23.36,5.79,35.05,20.18,35.05,43.15,0,13.75-4.12,26.03-12.37,36.84-8.24,10.81-25.85,16.22-52.83,16.22H0Zm51.05-114.26h25.66c6.44,0,10.98-1.67,13.62-5.02,2.64-3.35,3.97-6.92,3.97-10.72,0-10.31-6.17-15.47-18.51-15.47h-24.73v31.21Zm0,73h26.98c6.7,0,11.62-1.7,14.75-5.09,3.13-3.39,4.69-7.21,4.69-11.47s-1.52-8.16-4.56-11.74c-3.04-3.57-8.62-5.36-16.73-5.36h-25.13v33.65Z"/>
    <path class="cls-2" d="m224.95,498.21v42.88h-52.77v-42.88h52.77Zm0,53.06v138h-52.77v-138h52.77Z"/>
    <path class="cls-2" d="m282.75,689.27h-29.76v-185.23h51.97v63.64c7.23-12.85,18.73-19.27,34.52-19.27,11.11,0,20.54,2.99,28.3,8.96,7.76,5.97,13.53,14.5,17.32,25.58,3.79,11.08,5.69,22.73,5.69,34.94,0,22.25-4.85,40.19-14.55,53.8-9.7,13.62-24.16,20.42-43.38,20.42s-33.37-7.28-43.25-21.85c-2.82,5.43-5.11,11.76-6.88,19Zm22.22-51.43c0,13.57,5.11,20.35,15.34,20.35,5.55,0,9.81-2.46,12.76-7.4,2.95-4.93,4.43-15.08,4.43-30.46,0-16.73-1.68-27.25-5.03-31.55-3.35-4.29-7.49-6.44-12.43-6.44-3.88,0-7.36,1.54-10.45,4.61-3.09,3.08-4.63,7.56-4.63,13.43v37.45Z"/>
    <path class="cls-2" d="m477.55,692.12c-22.31,0-40.03-7.12-53.16-21.37-13.14-14.25-19.7-30.96-19.7-50.14,0-20.63,6.85-37.81,20.56-51.56,13.71-13.75,31.54-20.63,53.49-20.63s39.92,6.78,53.36,20.35c13.44,13.57,20.17,30.58,20.17,51.02s-6.81,37.84-20.43,51.63c-13.62,13.8-31.72,20.69-54.29,20.69Zm.79-32.84c8.2,0,13.2-4.36,15.01-13.09,1.81-8.73,2.71-17.84,2.71-27.34,0-12.93-1.28-22.25-3.84-27.95-2.56-5.7-7.14-8.55-13.75-8.55-6.08,0-10.54,2.94-13.36,8.82-2.82,5.88-4.23,15.56-4.23,29.04,0,15.83,1.45,26.3,4.36,31.41,2.91,5.11,7.27,7.67,13.09,7.67Z"/>
    <path class="cls-2" d="m560.86,650.19l41.66-5.84c2.38,9.95,11.81,14.93,28.3,14.93,13.66,0,20.5-2.71,20.5-8.14,0-2.35-1.32-4.18-3.97-5.5-2.64-1.31-8.91-2.65-18.78-4.01-27.33-3.89-44.39-9.97-51.18-18.25-6.79-8.28-10.18-17.48-10.18-27.61,0-14.11,5.73-25.53,17.19-34.26,11.46-8.73,26.49-13.09,45.1-13.09,32.62,0,53.43,12.08,62.42,36.23l-39.94,7.73c-3.7-8.14-11.51-12.21-23.41-12.21-5.64,0-9.85.79-12.63,2.37-2.78,1.58-4.17,3.14-4.17,4.68,0,4.52,4.23,7.28,12.7,8.26,22.04,2.5,36.99,5.07,44.83,7.69,7.84,2.62,14.54,7.42,20.1,14.39,5.55,6.97,8.33,15.39,8.33,25.26,0,15.12-6.15,27.11-18.45,35.98-12.3,8.87-29.25,13.31-50.85,13.31-36.41,0-58.94-13.98-67.58-41.93Z"/>
    <path class="cls-2" d="m769.02,498.21v42.88h-52.77v-42.88h52.77Zm0,53.06v138h-52.77v-138h52.77Z"/>
  </g>
  <g>
    <path class="cls-5" d="m155.89,250.11c0-82.43.01-164.86-.06-247.3C155.83.52,156.35,0,158.64,0c154.88.06,309.76.06,464.64,0,2.29,0,2.81.52,2.81,2.81-.06,164.86-.06,329.73,0,494.59,0,2.29-.52,2.81-2.81,2.81-154.88-.06-309.76-.06-464.64,0-2.29,0-2.81-.52-2.81-2.81.07-82.43.06-164.86.06-247.3Z"/>
    <path class="cls-7" d="m156.59,243.7c0-39.37.02-78.75-.05-118.12,0-2.33.6-3.58,2.77-4.69,13.5-6.88,26.81-14.13,40.35-20.91,30.53-15.3,60.54-31.64,91.01-47.06,30.93-15.65,61.54-31.93,92.34-47.82.8-.42,1.85-.48,2.51-1.03,4.28-3.55,8.03-1.91,12.36.39,24.79,13.15,49.6,26.28,74.64,38.94,31.57,15.96,62.69,32.8,94.28,48.73,18.87,9.52,37.5,19.5,56.36,29.06,1.73.88,2.23,1.92,2.23,3.78-.04,79.15-.04,158.31,0,237.46,0,1.93-.69,2.85-2.34,3.71-17.43,9.01-34.72,18.3-52.25,27.12-30.78,15.5-61.08,31.94-91.83,47.48-28.4,14.36-56.49,29.31-84.75,43.94-2.1,1.09-3.74,1.08-5.87.02-30.99-15.53-61.43-32.13-92.36-47.78-30.11-15.24-59.82-31.27-89.93-46.51-15.69-7.95-31.21-16.2-46.91-24.12-2.09-1.05-2.61-2.27-2.61-4.46.06-39.37.05-78.74.05-118.12Z"/>
    <path class="cls-4" d="m476.58,218.33c17.53,4.5,34.89,9.14,51.52,16.12,12.27,5.16,23.84,11.39,33.22,21.18,12.7,13.25,17.63,29.32,17.72,47.27.07,15.58-2.04,30.82-9.65,44.59-9.4,17.03-23.23,29.65-40.78,38.13-16.53,7.99-34.04,12.56-52.08,15.52-26.23,4.29-52.64,4.85-79.12,4.79-48.8-.12-97.59-.03-146.39-.04-1.52,0-3.03.04-4.54-.38-4.01-1.11-5.16-2.51-5.19-6.69-.02-3.37-.01-6.73,0-10.1,0-4.54,1.18-6.38,5.47-8.09,3.3-1.31,6.72-2.33,10.01-3.66,2.84-1.15,5.43-2.76,7.66-4.92,2.63-2.55,3.9-5.6,3.9-9.28-.02-81.29-.01-162.59-.02-243.88,0-5.17-1.08-6.79-5.91-8.76-4.24-1.73-8.62-3.04-13.02-4.31-6.14-1.78-7.37-3.29-7.76-9.63-.18-2.94-.24-5.93.02-8.86.53-6.05,2.82-8.37,8.75-9.68,1.82-.4,3.63-.45,5.46-.45,62.35,0,124.69-.2,187.04.09,23.97.11,47.71,2.78,70.5,10.97,16.13,5.8,30.6,14.24,41.9,27.45,14.12,16.5,16.59,40.65,5.98,58.43-6.19,10.38-15.34,17.57-25.51,23.63-17.98,10.72-37.52,16.97-58.08,20.31-.37.06-.73.18-1.09.27Z"/>
    <path class="cls-6" d="m389.63,306.31c0-24.27.05-48.54-.07-72.8-.01-2.72.7-3.43,3.38-3.35,9.45.29,18.94-.45,28.32,1.28,1.99.37,3.96.9,5.88,1.55,9.36,3.16,12.93,10.22,13.68,19.61,1.04,13.11,1.43,26.23,1.94,39.36.45,11.52.5,23.03.2,34.54-.27,10.48-.41,20.98-1.67,31.4-1.68,13.8-8.84,20.84-23.19,22.87-8.16,1.15-16.37,1.71-24.62,1.88-3.02.06-3.96-.63-3.94-3.83.15-24.17.08-48.33.08-72.5Z"/>
    <path class="cls-1" d="m340.87,295.59c-1.26.67-1.45,1.85-1.91,2.8-4.75,9.8-9.5,19.61-14.15,29.45-.75,1.59-1.73,1.96-3.43,2.24-6.25,1.04-9.72-1.29-12.1-7.27-3.11-7.83-7.25-15.26-10.98-22.84-.42-.86-.59-1.93-1.85-2.71v14.45c0,7.75.13,15.51-.07,23.25-.07,2.91.7,4.74,3.65,5.32,1.29.25,2.15,1.1,2.99,2,1.13,1.2,1.04,2.64.59,4.02-.46,1.41-1.66,2.04-3.1,2.04-7.54.02-15.08.08-22.61-.03-2.78-.04-4.01-3.33-2.29-5.7.24-.33.52-.74.87-.84,5.44-1.63,4.72-6.04,4.71-10.21-.04-16.83-.06-33.66.02-50.49.02-4.32-.63-7.87-5.65-9.02-2.37-.54-1.73-2.71-1.56-4.35.17-1.71,1.08-2.64,3.05-2.63,11.41.07,22.82.1,34.23-.03,2.24-.02,2.68,1.4,3.37,2.83,4.34,8.98,8.66,17.97,13,26.96.17.35.42.67.91,1.45.89-1.91,1.59-3.51,2.37-5.08,4.02-8.12,8.08-16.23,12.07-24.37.62-1.26,1.38-1.76,2.81-1.76,11.41.06,22.82.03,34.23.03,1.54,0,2.96.31,3.22,2.09.27,1.85.34,3.74-1.88,4.64-.09.04-.19.1-.28.11-5.77.46-5.85,4.3-5.8,8.87.2,17.74.18,35.49,0,53.24-.04,3.53.76,5.62,4.4,6.28,1.65.3,2.97,1.04,3.06,3.18.18,4.49-.05,4.83-4.63,4.83-13.55,0-27.1,0-40.64,0-1.88,0-3.77.15-4.22-2.38-.55-3.1.28-4.89,3.07-5.65,2.68-.73,4.6-1.76,4.58-5.03-.07-13.19-.03-26.39-.03-39.72Z"/>
    <path class="cls-6" d="m389.63,153.7c0-16.73.04-33.46-.05-50.19-.01-2.29.42-3.23,2.98-3.13,8.74.34,17.51-.49,26.2,1.15,14.77,2.79,21.63,9.95,23.85,24.96,2.14,14.52,1.4,29.09.84,43.65-.21,5.49-.46,11-1.73,16.38-2.7,11.53-10.92,16.89-21.76,19.13-9.46,1.96-19.07,1.11-28.63,1.3-2.27.05-1.69-1.58-1.69-2.77-.03-11.53-.02-23.05-.02-34.58,0-5.3,0-10.61,0-15.91Z"/>
    <path class="cls-1" d="m513.72,309.43c6.83,1.59,13.13,3.18,17.31,8.89,1.87,2.55,2.75,5.37,2.8,8.54.07,4.58-.32,9.16.34,13.74.21,1.44.6,2.41,1.96,3.13,2.55,1.35,2.01,3.76,1.59,5.95-.2,1.04-1.3,1.13-2.26,1.13-7.54,0-15.07.09-22.61-.04-4.38-.07-7.77-4.3-7.85-9.67-.1-6.83-.03-13.66-.03-20.49,0-4.88-2.19-7.26-7.06-7.69q-5.22-.45-5.22,4.74c0,7.24.04,14.48-.03,21.72-.02,1.8.33,3.15,2.18,3.89,2.43.97,2.39,3.07,2.03,5.17-.38,2.22-2.02,2.42-3.92,2.41-10.79-.05-21.59-.04-32.38,0-1.86,0-3.67-.08-3.83-2.42-.15-2.13-.73-4.55,2.49-5.34,2.6-.64,3.61-2.56,3.6-5.29-.06-20.39-.07-40.78,0-61.18.01-2.95-1.21-4.65-3.93-5.31-1.99-.48-3.14-1.47-2.73-3.62.4-2.1,1.01-3.82,3.81-3.81,15.48.09,30.98-.4,46.43.2,10.66.42,20.41,4.18,26.65,13.65,6.21,9.43,3.12,21.17-6.63,26.84-3.82,2.22-8.02,3.37-12.72,4.9Z"/>
    <path class="cls-4" d="m492.71,288.06c0-5.1.08-10.2-.04-15.3-.05-2.08.48-2.84,2.71-2.78,6.9.17,9.6,2.76,9.6,9.64,0,5.82.02,11.63,0,17.45-.03,6.94-3.09,9.84-9.9,9.71-1.91-.04-2.43-.68-2.4-2.5.09-5.41.03-10.81.03-16.22Z"/>
  </g>
</svg>